<svg width="24" height="24" viewBox="0 0 24 24" fill="none" xmlns="http://www.w3.org/2000/svg">
<path d="M5.22517 19.1969H18.7748C18.8876 19.1969 18.9957 19.1521 19.0755 19.0723C19.1552 18.9926 19.2 18.8845 19.2 18.7717V18.1821C19.2 18.0693 19.1552 17.9611 19.0755 17.8814C18.9957 17.8017 18.8876 17.7569 18.7748 17.7569H5.22517C5.1124 17.7569 5.00426 17.8017 4.92452 17.8814C4.84478 17.9611 4.79999 18.0693 4.79999 18.1821V18.7717C4.79999 18.8845 4.84478 18.9926 4.92452 19.0723C5.00426 19.1521 5.1124 19.1969 5.22517 19.1969ZM5.94714 16.3169H6.53678C6.64954 16.3169 6.75769 16.2721 6.83743 16.1923C6.91716 16.1126 6.96196 16.0045 6.96196 15.8917V13.8621C6.96196 13.8062 6.95096 13.7509 6.92958 13.6993C6.9082 13.6477 6.87687 13.6008 6.83737 13.5614C6.79788 13.5219 6.75099 13.4906 6.69938 13.4692C6.64778 13.4478 6.59248 13.4369 6.53663 13.4369H5.94714C5.83437 13.4369 5.72623 13.4817 5.64649 13.5614C5.56675 13.6411 5.52196 13.7493 5.52196 13.8621V15.8917C5.52196 16.0045 5.56675 16.1126 5.64649 16.1923C5.72623 16.2721 5.83437 16.3169 5.94714 16.3169ZM8.40196 10.9821V15.8917C8.40196 16.0045 8.44675 16.1126 8.52649 16.1923C8.60623 16.2721 8.71437 16.3169 8.82714 16.3169H9.41678C9.52954 16.3169 9.63769 16.2721 9.71743 16.1923C9.79716 16.1126 9.84196 16.0045 9.84196 15.8917V10.9821C9.84196 10.9262 9.83096 10.8709 9.80958 10.8193C9.7882 10.7677 9.75687 10.7208 9.71737 10.6814C9.67788 10.6419 9.63099 10.6106 9.57938 10.5892C9.52778 10.5678 9.47248 10.5569 9.41663 10.5569H8.82714C8.71437 10.5569 8.60623 10.6017 8.52649 10.6814C8.44675 10.7611 8.40196 10.8693 8.40196 10.9821ZM11.282 8.10205V15.8917C11.282 16.0045 11.3268 16.1126 11.4065 16.1923C11.4862 16.2721 11.5944 16.3169 11.7071 16.3169H12.2968C12.4095 16.3169 12.5177 16.2721 12.5974 16.1923C12.6772 16.1126 12.722 16.0045 12.722 15.8917V8.10205C12.722 8.04621 12.711 7.99091 12.6896 7.93931C12.6682 7.88772 12.6369 7.84084 12.5974 7.80135C12.5579 7.76187 12.511 7.73055 12.4594 7.7092C12.4078 7.68784 12.3525 7.67686 12.2966 7.67688H11.7071C11.5944 7.67688 11.4862 7.72167 11.4065 7.80141C11.3268 7.88114 11.282 7.98929 11.282 8.10205ZM14.162 10.9821V15.8917C14.162 16.0045 14.2068 16.1126 14.2865 16.1923C14.3662 16.2721 14.4744 16.3169 14.5871 16.3169H15.1768C15.2326 16.3169 15.2879 16.3059 15.3395 16.2845C15.3911 16.2631 15.4379 16.2318 15.4774 16.1923C15.5169 16.1529 15.5482 16.106 15.5696 16.0544C15.591 16.0028 15.602 15.9475 15.602 15.8917V10.9821C15.602 10.9262 15.591 10.8709 15.5696 10.8193C15.5482 10.7677 15.5169 10.7208 15.4774 10.6814C15.4379 10.6419 15.391 10.6106 15.3394 10.5892C15.2878 10.5678 15.2325 10.5569 15.1766 10.5569H14.5871C14.4744 10.5569 14.3662 10.6017 14.2865 10.6814C14.2068 10.7611 14.162 10.8693 14.162 10.9821ZM17.042 5.22205V15.8917C17.042 16.0045 17.0868 16.1126 17.1665 16.1923C17.2462 16.2721 17.3544 16.3169 17.4671 16.3169H18.0568C18.1695 16.3169 18.2777 16.2721 18.3574 16.1923C18.4372 16.1126 18.482 16.0045 18.482 15.8917V5.22205C18.482 5.16621 18.471 5.1109 18.4496 5.05931C18.4282 5.00772 18.3969 4.96084 18.3574 4.92135C18.3179 4.88187 18.271 4.85055 18.2194 4.8292C18.1678 4.80784 18.1125 4.79686 18.0566 4.79688H17.4671C17.4113 4.79688 17.356 4.80787 17.3044 4.82924C17.2528 4.85061 17.206 4.88193 17.1665 4.92141C17.127 4.96089 17.0957 5.00776 17.0743 5.05935C17.053 5.11093 17.042 5.16622 17.042 5.22205Z" fill="#3368C6"/>
</svg>
