<svg width="24" height="24" viewBox="0 0 24 24" fill="none" xmlns="http://www.w3.org/2000/svg">
<path d="M18.4879 7.21387C16.8692 5.5956 14.2359 5.5956 12.6176 7.21387L12.2417 7.58952L11.8661 7.21387C10.2478 5.59538 7.61426 5.59538 5.99599 7.21387C4.41058 8.79928 4.40028 11.3123 5.97211 13.0596C7.40573 14.6527 11.6339 18.0945 11.8133 18.2401C11.9302 18.3355 12.0764 18.3875 12.2273 18.3873L12.2415 18.3871C12.3922 18.3941 12.544 18.3424 12.6697 18.2401C12.8491 18.0945 17.0777 14.6527 18.5117 13.0594C20.0834 11.3123 20.0731 8.79928 18.4879 7.21387ZM17.5348 12.1804C16.4171 13.4221 13.3446 15.9832 12.2415 16.8919C11.1384 15.9834 8.06658 13.4226 6.94903 12.1806C5.85252 10.9619 5.84222 9.22619 6.92516 8.14326C7.47824 7.5904 8.20457 7.31375 8.93091 7.31375C9.65725 7.31375 10.3836 7.59018 10.9367 8.14326L11.7629 8.96948C11.8585 9.06458 11.982 9.1268 12.1153 9.14712C12.2229 9.17043 12.3346 9.1664 12.4402 9.13541C12.5458 9.10442 12.642 9.04744 12.7199 8.9697L13.5465 8.14326C14.6529 7.03732 16.4525 7.03754 17.5583 8.14326C18.6412 9.22619 18.6309 10.9619 17.5348 12.1804Z" fill="#222E6A"/>
</svg>
