<svg width="40" height="40" viewBox="0 0 40 40" fill="none" xmlns="http://www.w3.org/2000/svg">
<g clip-path="url(#clip0_551_1827)">
<path d="M0.870368 29.7879C1.68703 32.6846 4.18537 33.2146 4.35203 33.3162C8.4637 34.4362 31.5104 34.4396 35.6837 33.3162C38.542 32.4896 39.067 29.9546 39.1654 29.7879C40.2537 23.9979 40.3254 16.4496 39.1154 9.87955L39.1654 10.2062C38.3487 7.30955 35.8504 6.77955 35.6837 6.67789C31.627 5.57622 8.52037 5.53455 4.35203 6.67789C1.4937 7.50622 0.968701 10.0396 0.870368 10.2062C-0.294632 16.2912 -0.352965 23.2729 0.870368 29.7879ZM16.0137 26.0829V13.9279L26.457 20.0146L16.0137 26.0829Z" fill="#3368C6"/>
</g>
<defs>
<clipPath id="clip0_551_1827">
<rect width="40" height="40" fill="white"/>
</clipPath>
</defs>
</svg>
