<svg width="24" height="24" viewBox="0 0 24 24" fill="none" xmlns="http://www.w3.org/2000/svg">
<path d="M0.708632 24H23.2914C23.4793 24 23.6596 23.9253 23.7924 23.7924C23.9253 23.6596 24 23.4793 24 23.2914V22.3086C24 22.1207 23.9253 21.9404 23.7924 21.8076C23.6596 21.6747 23.4793 21.6 23.2914 21.6H0.708632C0.520691 21.6 0.340448 21.6747 0.207553 21.8076C0.0746592 21.9404 0 22.1207 0 22.3086V23.2914C0 23.4793 0.0746592 23.6596 0.207553 23.7924C0.340448 23.9253 0.520691 24 0.708632 24ZM1.91192 19.2H2.89465C3.08259 19.2 3.26284 19.1253 3.39573 18.9924C3.52863 18.8596 3.60328 18.6793 3.60328 18.4914V15.1086C3.60328 15.0156 3.58495 14.9234 3.54932 14.8374C3.51369 14.7514 3.46147 14.6733 3.39564 14.6075C3.32981 14.5417 3.25166 14.4895 3.16566 14.4539C3.07965 14.4183 2.98748 14.4 2.8944 14.4H1.91192C1.72397 14.4 1.54373 14.4747 1.41084 14.6076C1.27794 14.7404 1.20328 14.9207 1.20328 15.1086V18.4914C1.20328 18.6793 1.27794 18.8596 1.41084 18.9924C1.54373 19.1253 1.72397 19.2 1.91192 19.2ZM6.00328 10.3086V18.4914C6.00328 18.6793 6.07794 18.8596 6.21084 18.9924C6.34373 19.1253 6.52397 19.2 6.71192 19.2H7.69465C7.88259 19.2 8.06284 19.1253 8.19573 18.9924C8.32862 18.8596 8.40328 18.6793 8.40328 18.4914V10.3086C8.40328 10.2156 8.38495 10.1234 8.34932 10.0374C8.31369 9.9514 8.26147 9.87327 8.19564 9.80746C8.12981 9.74166 8.05166 9.68947 7.96566 9.65387C7.87965 9.61827 7.78748 9.59997 7.6944 9.6H6.71192C6.52397 9.6 6.34373 9.67466 6.21084 9.80755C6.07794 9.94045 6.00328 10.1207 6.00328 10.3086ZM10.8033 5.50863V18.4914C10.8033 18.6793 10.8779 18.8596 11.0108 18.9924C11.1437 19.1253 11.324 19.2 11.5119 19.2H12.4947C12.6826 19.2 12.8628 19.1253 12.9957 18.9924C13.1286 18.8596 13.2033 18.6793 13.2033 18.4914V5.50863C13.2033 5.41555 13.1849 5.32338 13.1493 5.23739C13.1137 5.1514 13.0615 5.07327 12.9956 5.00746C12.9298 4.94166 12.8517 4.88947 12.7657 4.85387C12.6797 4.81827 12.5875 4.79997 12.4944 4.8H11.5119C11.324 4.8 11.1437 4.87466 11.0108 5.00755C10.8779 5.14045 10.8033 5.32069 10.8033 5.50863ZM15.6033 10.3086V18.4914C15.6033 18.6793 15.6779 18.8596 15.8108 18.9924C15.9437 19.1253 16.124 19.2 16.3119 19.2H17.2947C17.3877 19.2 17.4799 19.1817 17.5658 19.1461C17.6518 19.1104 17.7299 19.0582 17.7957 18.9924C17.8615 18.9266 17.9137 18.8485 17.9493 18.7625C17.985 18.6766 18.0033 18.5844 18.0033 18.4914V10.3086C18.0033 10.2156 17.9849 10.1234 17.9493 10.0374C17.9137 9.9514 17.8615 9.87327 17.7956 9.80746C17.7298 9.74166 17.6517 9.68947 17.5657 9.65387C17.4797 9.61827 17.3875 9.59997 17.2944 9.6H16.3119C16.124 9.6 15.9437 9.67466 15.8108 9.80755C15.6779 9.94045 15.6033 10.1207 15.6033 10.3086ZM20.4033 0.708632V18.4914C20.4033 18.6793 20.4779 18.8596 20.6108 18.9924C20.7437 19.1253 20.924 19.2 21.1119 19.2H22.0947C22.2826 19.2 22.4628 19.1253 22.5957 18.9924C22.7286 18.8596 22.8033 18.6793 22.8033 18.4914V0.708632C22.8033 0.615552 22.7849 0.523383 22.7493 0.437392C22.7137 0.3514 22.6615 0.27327 22.5956 0.207464C22.5298 0.141658 22.4517 0.0894661 22.3657 0.0538689C22.2797 0.0182717 22.1875 -3.31386e-05 22.0944 4.50365e-08H21.1119C21.0189 4.50365e-08 20.9267 0.0183293 20.8407 0.0539414C20.7548 0.0895535 20.6766 0.141751 20.6108 0.207553C20.545 0.273356 20.4928 0.351475 20.4572 0.43745C20.4216 0.523425 20.4033 0.615573 20.4033 0.708632Z" fill="#3368C6"/>
</svg>
