<svg width="40" height="40" viewBox="0 0 40 40" fill="none" xmlns="http://www.w3.org/2000/svg">
<path d="M35.1765 37.9968H4.82353C3.26664 37.9968 2 36.7301 2 35.1733V7.64384C2 6.08695 3.26664 4.82031 4.82353 4.82031H6.94118C7.33097 4.82031 7.64706 5.13641 7.64706 5.52619V6.90429C7.64706 7.29867 7.952 7.63022 8.32697 7.64335C8.71845 7.66029 9.05882 7.34525 9.05882 6.93796V5.52619C9.05882 5.13641 9.37485 4.82031 9.76471 4.82031H14.7059C15.0957 4.82031 15.4118 5.13641 15.4118 5.52619V6.90429C15.4118 7.29867 15.7167 7.63022 16.0917 7.64335C16.4858 7.66029 16.8235 7.34243 16.8235 6.93796V5.52619C16.8235 5.13641 17.1396 4.82031 17.5294 4.82031H22.4706C22.8604 4.82031 23.1765 5.13641 23.1765 5.52619V6.90429C23.1765 7.29867 23.4814 7.63022 23.8564 7.64335C24.2467 7.66022 24.5882 7.3461 24.5882 6.93796V5.52619C24.5882 5.13641 24.9043 4.82031 25.2941 4.82031H30.2353C30.6251 4.82031 30.9412 5.13641 30.9412 5.52619V6.90429C30.9412 7.29867 31.2461 7.63022 31.6211 7.64335C32.0139 7.66029 32.3529 7.34398 32.3529 6.93796V5.52619C32.3529 5.13641 32.669 4.82031 33.0588 4.82031H35.1765C36.7334 4.82031 38 6.08695 38 7.64384V35.1733C38 36.7301 36.7334 37.9968 35.1765 37.9968ZM4.82353 6.23208C4.04508 6.23208 3.41176 6.8654 3.41176 7.64384V35.1733C3.41176 35.9517 4.04508 36.585 4.82353 36.585H35.1765C35.9549 36.585 36.5882 35.9517 36.5882 35.1733V7.64384C36.5882 6.8654 35.9549 6.23208 35.1765 6.23208H33.7647V6.93796C33.7647 8.13542 32.7762 9.09577 31.5717 9.05427C30.4264 9.01417 29.5294 8.06977 29.5294 6.90429V6.23208H26V6.93796C26 8.13605 25.0108 9.09577 23.807 9.05427C22.6617 9.01417 21.7647 8.06977 21.7647 6.90429V6.23208H18.2353V6.93796C18.2353 8.1345 17.2476 9.09584 16.0423 9.05427C14.897 9.01417 14 8.06977 14 6.90429V6.23208H10.4706V6.93796C10.4706 8.13231 9.48525 9.09584 8.27755 9.05427C7.13233 9.01417 6.23529 8.06977 6.23529 6.90429V6.23208H4.82353Z" fill="#3368C6"/>
<path d="M37.2941 13.2941H2.70588C2.31602 13.2941 2 12.9781 2 12.5882C2 12.1984 2.31602 11.8824 2.70588 11.8824H37.2941C37.6839 11.8824 38 12.1984 38 12.5882C38 12.9781 37.6839 13.2941 37.2941 13.2941ZM31.6471 9.05882C30.4794 9.05882 29.5294 8.10885 29.5294 6.94118V4.11765C29.5294 2.94998 30.4794 2 31.6471 2C32.8171 2 33.7647 2.94765 33.7647 4.11765V6.94118C33.7647 8.10885 32.8147 9.05882 31.6471 9.05882ZM31.6471 3.41176C31.2578 3.41176 30.9412 3.72842 30.9412 4.11765V6.94118C30.9412 7.3304 31.2578 7.64706 31.6471 7.64706C32.0363 7.64706 32.3529 7.3304 32.3529 6.94118V4.11765C32.3529 3.72807 32.0368 3.41176 31.6471 3.41176ZM23.8824 9.05882C22.7147 9.05882 21.7647 8.10885 21.7647 6.94118V4.11765C21.7647 2.94998 22.7147 2 23.8824 2C25.0524 2 26 2.94765 26 4.11765V6.94118C26 8.10885 25.05 9.05882 23.8824 9.05882ZM23.8824 3.41176C23.4931 3.41176 23.1765 3.72842 23.1765 4.11765V6.94118C23.1765 7.3304 23.4931 7.64706 23.8824 7.64706C24.2716 7.64706 24.5882 7.3304 24.5882 6.94118V4.11765C24.5882 3.72807 24.2721 3.41176 23.8824 3.41176ZM16.1176 9.05882C14.95 9.05882 14 8.10885 14 6.94118V4.11765C14 2.94998 14.95 2 16.1176 2C17.2877 2 18.2353 2.94765 18.2353 4.11765V6.94118C18.2353 8.10885 17.2853 9.05882 16.1176 9.05882ZM16.1176 3.41176C15.7284 3.41176 15.4118 3.72842 15.4118 4.11765V6.94118C15.4118 7.3304 15.7284 7.64706 16.1176 7.64706C16.5069 7.64706 16.8235 7.3304 16.8235 6.94118V4.11765C16.8235 3.72807 16.5074 3.41176 16.1176 3.41176ZM8.35294 9.05882C7.18527 9.05882 6.23529 8.10885 6.23529 6.94118V4.11765C6.23529 2.94998 7.18527 2 8.35294 2C9.52294 2 10.4706 2.94765 10.4706 4.11765V6.94118C10.4706 8.10885 9.52061 9.05882 8.35294 9.05882ZM8.35294 3.41176C7.96372 3.41176 7.64706 3.72842 7.64706 4.11765V6.94118C7.64706 7.3304 7.96372 7.64706 8.35294 7.64706C8.74217 7.64706 9.05882 7.3304 9.05882 6.94118V4.11765C9.05882 3.72807 8.74266 3.41176 8.35294 3.41176ZM11.1765 20.3529H7.64706C7.2572 20.3529 6.94118 20.0368 6.94118 19.6471V16.1176C6.94118 15.7278 7.2572 15.4118 7.64706 15.4118H11.1765C11.5663 15.4118 11.8824 15.7278 11.8824 16.1176V19.6471C11.8824 20.0368 11.5663 20.3529 11.1765 20.3529ZM8.35294 18.9412H10.4706V16.8235H8.35294V18.9412ZM18.2353 20.3529H14.7059C14.316 20.3529 14 20.0368 14 19.6471V16.1176C14 15.7278 14.316 15.4118 14.7059 15.4118H18.2353C18.6252 15.4118 18.9412 15.7278 18.9412 16.1176V19.6471C18.9412 20.0368 18.6252 20.3529 18.2353 20.3529ZM15.4118 18.9412H17.5294V16.8235H15.4118V18.9412ZM25.2941 20.3529H21.7647C21.3749 20.3529 21.0588 20.0368 21.0588 19.6471V16.1176C21.0588 15.7278 21.3749 15.4118 21.7647 15.4118H25.2941C25.6839 15.4118 26 15.7278 26 16.1176V19.6471C26 20.0368 25.6839 20.3529 25.2941 20.3529ZM22.4706 18.9412H24.5882V16.8235H22.4706V18.9412ZM32.3529 20.3529H28.8235C28.4337 20.3529 28.1176 20.0368 28.1176 19.6471V16.1176C28.1176 15.7278 28.4337 15.4118 28.8235 15.4118H32.3529C32.7427 15.4118 33.0588 15.7278 33.0588 16.1176V19.6471C33.0588 20.0368 32.7427 20.3529 32.3529 20.3529ZM29.5294 18.9412H31.6471V16.8235H29.5294V18.9412ZM25.2941 27.4118H21.7647C21.3749 27.4118 21.0588 27.0957 21.0588 26.7059V23.1765C21.0588 22.7867 21.3749 22.4706 21.7647 22.4706H25.2941C25.6839 22.4706 26 22.7867 26 23.1765V26.7059C26 27.0957 25.6839 27.4118 25.2941 27.4118ZM22.4706 26H24.5882V23.8824H22.4706V26ZM32.3529 27.4118H28.8235C28.4337 27.4118 28.1176 27.0957 28.1176 26.7059V23.1765C28.1176 22.7867 28.4337 22.4706 28.8235 22.4706H32.3529C32.7427 22.4706 33.0588 22.7867 33.0588 23.1765V26.7059C33.0588 27.0957 32.7427 27.4118 32.3529 27.4118ZM29.5294 26H31.6471V23.8824H29.5294V26ZM25.2941 34.4706H21.7647C21.3749 34.4706 21.0588 34.1545 21.0588 33.7647V30.2353C21.0588 29.8455 21.3749 29.5294 21.7647 29.5294H25.2941C25.6839 29.5294 26 29.8455 26 30.2353V33.7647C26 34.1545 25.6839 34.4706 25.2941 34.4706ZM22.4706 33.0588H24.5882V30.9412H22.4706V33.0588ZM32.3529 34.4706H28.8235C28.4337 34.4706 28.1176 34.1545 28.1176 33.7647V30.2353C28.1176 29.8455 28.4337 29.5294 28.8235 29.5294H32.3529C32.7427 29.5294 33.0588 29.8455 33.0588 30.2353V33.7647C33.0588 34.1545 32.7427 34.4706 32.3529 34.4706ZM29.5294 33.0588H31.6471V30.9412H29.5294V33.0588ZM11.1765 27.4118H7.64706C7.2572 27.4118 6.94118 27.0957 6.94118 26.7059V23.1765C6.94118 22.7867 7.2572 22.4706 7.64706 22.4706H11.1765C11.5663 22.4706 11.8824 22.7867 11.8824 23.1765V26.7059C11.8824 27.0957 11.5663 27.4118 11.1765 27.4118ZM8.35294 26H10.4706V23.8824H8.35294V26ZM18.2353 27.4118H14.7059C14.316 27.4118 14 27.0957 14 26.7059V23.1765C14 22.7867 14.316 22.4706 14.7059 22.4706H18.2353C18.6252 22.4706 18.9412 22.7867 18.9412 23.1765V26.7059C18.9412 27.0957 18.6252 27.4118 18.2353 27.4118ZM15.4118 26H17.5294V23.8824H15.4118V26ZM11.1765 34.4706H7.64706C7.2572 34.4706 6.94118 34.1545 6.94118 33.7647V30.2353C6.94118 29.8455 7.2572 29.5294 7.64706 29.5294H11.1765C11.5663 29.5294 11.8824 29.8455 11.8824 30.2353V33.7647C11.8824 34.1545 11.5663 34.4706 11.1765 34.4706ZM8.35294 33.0588H10.4706V30.9412H8.35294V33.0588ZM18.2353 34.4706H14.7059C14.316 34.4706 14 34.1545 14 33.7647V30.2353C14 29.8455 14.316 29.5294 14.7059 29.5294H18.2353C18.6252 29.5294 18.9412 29.8455 18.9412 30.2353V33.7647C18.9412 34.1545 18.6252 34.4706 18.2353 34.4706ZM15.4118 33.0588H17.5294V30.9412H15.4118V33.0588Z" fill="#3368C6"/>
</svg>
