<svg width="40" height="40" viewBox="0 0 40 40" fill="none" xmlns="http://www.w3.org/2000/svg">
<g clip-path="url(#clip0_551_1818)">
<path d="M20 40C31.0457 40 40 31.0457 40 20C40 8.9543 31.0457 0 20 0C8.9543 0 0 8.9543 0 20C0 31.0457 8.9543 40 20 40Z" fill="#3368C6"/>
<path d="M9.15113 19.5651L28.4345 12.1301C29.3295 11.8067 30.1111 12.3484 29.8211 13.7017L29.8228 13.7001L26.5395 29.1684C26.2961 30.2651 25.6445 30.5317 24.7328 30.0151L19.7328 26.3301L17.3211 28.6534C17.0545 28.9201 16.8295 29.1451 16.3128 29.1451L16.6678 24.0567L25.9345 15.6851C26.3378 15.3301 25.8445 15.1301 25.3128 15.4834L13.8611 22.6934L8.92446 21.1534C7.85279 20.8134 7.82946 20.0817 9.15113 19.5651Z" fill="white"/>
</g>
<defs>
<clipPath id="clip0_551_1818">
<rect width="40" height="40" fill="white"/>
</clipPath>
</defs>
</svg>
