<svg width="40" height="40" viewBox="0 0 40 40" fill="none" xmlns="http://www.w3.org/2000/svg">
<g clip-path="url(#clip0_446_24556)">
<path d="M31.1501 14.5086C30.9818 14.3823 30.7771 14.3141 30.5667 14.3141H23.1179L30.4889 1.45863C30.7575 0.993511 30.5981 0.398845 30.133 0.130274C29.9869 0.0459293 29.8214 0.00103511 29.6527 0L19.306 0C19.1217 0.00139577 18.9416 0.0551589 18.7866 0.155022C18.6317 0.254885 18.5083 0.396735 18.4309 0.564035L8.55109 21.2766C8.32555 21.764 8.53778 22.342 9.02514 22.5675C9.15095 22.6258 9.2877 22.6564 9.42627 22.6574H16.8555L11.5072 38.7996C11.4618 39.0183 11.4931 39.246 11.5958 39.4443C11.6986 39.6427 11.8664 39.7996 12.0712 39.8888C12.2747 39.9955 12.5094 40.0266 12.7337 39.9768C12.958 39.9269 13.1573 39.7993 13.2965 39.6165L31.3446 15.8699C31.6669 15.4403 31.5798 14.8307 31.1501 14.5086ZM15.2802 33.8597L19.2088 21.9183C19.3806 21.4095 19.1075 20.8577 18.5987 20.6859C18.5007 20.6528 18.3981 20.6355 18.2947 20.6347H11.0404L19.9089 1.84754H27.9995L20.6091 14.8002C20.3405 15.2653 20.4998 15.86 20.965 16.1286C21.1111 16.2129 21.2766 16.2578 21.4453 16.2588H28.6218L15.2802 33.8597Z" fill="#3368C6"/>
</g>
<defs>
<clipPath id="clip0_446_24556">
<rect width="40" height="40" fill="white"/>
</clipPath>
</defs>
</svg>
