<svg width="25" height="21" viewBox="0 0 25 21" fill="none" xmlns="http://www.w3.org/2000/svg">
<path d="M22.813 2.02311C20.1152 -0.674005 15.7263 -0.674005 13.0292 2.02311L12.4028 2.6492L11.7767 2.02311C9.07956 -0.67437 4.69035 -0.67437 1.99323 2.02311C-0.649123 4.66547 -0.666281 8.85389 1.95344 11.766C4.34281 14.4212 11.3897 20.1575 11.6887 20.4002C11.8835 20.5591 12.1273 20.6458 12.3787 20.6456L12.4024 20.6452C12.6536 20.6569 12.9066 20.5707 13.1161 20.4002C13.4151 20.1575 20.4627 14.4212 22.8528 11.7657C25.4722 8.85389 25.455 4.66547 22.813 2.02311ZM21.2246 10.3006C19.3617 12.3702 14.2409 16.6386 12.4024 18.1532C10.5639 16.6389 5.44422 12.3709 3.58164 10.301C1.75411 8.26978 1.73696 5.37699 3.54185 3.57209C4.46364 2.65066 5.67421 2.18958 6.88477 2.18958C8.09533 2.18958 9.3059 2.6503 10.2277 3.57209L11.6047 4.94913C11.7641 5.10764 11.9699 5.21133 12.1921 5.2452C12.3714 5.28405 12.5576 5.27734 12.7336 5.22568C12.9096 5.17403 13.0699 5.07907 13.1997 4.94949L14.5775 3.57209C16.4214 1.72887 19.4208 1.72923 21.2637 3.57209C23.0686 5.37699 23.0514 8.26978 21.2246 10.3006Z" fill="#3368C6"/>
</svg>
