<svg width="40" height="40" viewBox="0 0 40 40" fill="none" xmlns="http://www.w3.org/2000/svg">
<g clip-path="url(#clip0_446_24562)">
<path d="M38.0714 20.5181C37.9887 20.357 37.9456 20.1797 37.9456 20C37.9456 19.8204 37.9887 19.6431 38.0714 19.482L39.6262 16.43C40.4918 14.7308 39.806 12.7054 38.0647 11.8189L34.9374 10.2267C34.7718 10.143 34.6284 10.0239 34.5183 9.87859C34.4083 9.73326 34.3345 9.5656 34.3027 9.38855L33.6911 6.04258C33.3505 4.17963 31.5546 2.92777 29.6032 3.19269L26.0979 3.66846C25.9126 3.69417 25.7236 3.67866 25.5455 3.62313C25.3675 3.56761 25.2051 3.47355 25.0709 3.34823L22.5265 0.986385C21.1097 -0.328756 18.8903 -0.328834 17.4736 0.986385L14.9291 3.34847C14.7949 3.47376 14.6325 3.56779 14.4545 3.62332C14.2764 3.67884 14.0874 3.69437 13.9021 3.6687L10.3968 3.19292C8.44478 2.92785 6.64949 4.17986 6.30891 6.04281L5.69729 9.38863C5.6655 9.56567 5.59174 9.73334 5.4817 9.87869C5.37166 10.024 5.22828 10.1432 5.06263 10.2269L1.93533 11.8191C0.194103 12.7055 -0.49177 14.731 0.373876 16.4303L1.92857 19.4821C2.01133 19.6433 2.05437 19.8205 2.05437 20.0002C2.05437 20.1798 2.01133 20.3571 1.92857 20.5183L0.373795 23.5701C-0.491852 25.2694 0.194022 27.2948 1.93525 28.1812L5.06255 29.7734C5.22821 29.8571 5.37161 29.9762 5.48167 30.1216C5.59173 30.2669 5.6655 30.4345 5.69729 30.6116L6.30891 33.9576C6.61896 35.6535 8.13449 36.8428 9.87628 36.8427C10.0478 36.8427 10.2219 36.8311 10.3969 36.8074L13.9022 36.3316C14.0875 36.3059 14.2765 36.3214 14.4546 36.3769C14.6326 36.4324 14.795 36.5265 14.9291 36.6518L17.4736 39.0137C18.1821 39.6713 19.0909 40.0001 20 40C20.9089 39.9999 21.8182 39.6712 22.5264 39.0137L25.0709 36.6518C25.3455 36.3971 25.7197 36.2807 26.0979 36.3316L29.6032 36.8074C31.5555 37.0724 33.3505 35.8204 33.6911 33.9575L34.3028 30.6117C34.3346 30.4346 34.4083 30.267 34.5184 30.1216C34.6284 29.9763 34.7718 29.8571 34.9374 29.7734L38.0647 28.1812C39.806 27.2948 40.4918 25.2693 39.6262 23.57L38.0714 20.5181ZM36.9378 26.1432L33.8105 27.7354C32.8135 28.2431 32.1296 29.1461 31.9346 30.2129L31.323 33.5588C31.2691 33.8609 31.0943 34.1308 30.8359 34.3109C30.5775 34.491 30.256 34.5671 29.9399 34.523L26.4346 34.0473C25.3167 33.8953 24.2106 34.2405 23.3992 34.9936L20.8547 37.3553C20.626 37.5692 20.3193 37.689 20 37.689C19.6806 37.689 19.3739 37.5692 19.1452 37.3553L16.6008 34.9935C15.915 34.357 15.0186 34.0121 14.0828 34.0121C13.9113 34.0121 13.7385 34.0237 13.5654 34.0472L10.06 34.5229C9.744 34.567 9.42254 34.4908 9.16417 34.3107C8.90581 34.1306 8.73099 33.8608 8.67698 33.5587L8.06528 30.2128C7.8702 29.1459 7.18645 28.2429 6.18931 27.7353L3.062 26.1431C2.77927 26.0006 2.56578 25.7577 2.46708 25.4662C2.36838 25.1748 2.39227 24.8578 2.53368 24.5831L4.08845 21.5311C4.58413 20.558 4.58413 19.442 4.08845 18.4688L2.53368 15.4169C2.39227 15.1421 2.36838 14.8252 2.46708 14.5338C2.56578 14.2423 2.77927 13.9994 3.062 13.8569L6.18931 12.2647C7.18636 11.757 7.8702 10.854 8.0652 9.78714L8.67682 6.44124C8.73075 6.13919 8.90555 5.86931 9.16394 5.68918C9.42232 5.50904 9.74383 5.43292 10.0599 5.47704L13.5652 5.95281C14.6827 6.10461 15.7893 5.75953 16.6006 5.00649L19.1451 2.64465C19.3738 2.43074 19.6805 2.31102 19.9999 2.31102C20.3192 2.31102 20.626 2.43074 20.8547 2.64465L23.3991 5.00649C24.2104 5.75961 25.3168 6.10461 26.4345 5.95281L29.9398 5.47704C30.2558 5.43296 30.5773 5.5091 30.8357 5.68923C31.0941 5.86935 31.2689 6.13921 31.3229 6.44124L31.9345 9.78722C32.1296 10.8541 32.8133 11.7571 33.8104 12.2647L36.9377 13.8569C37.2205 13.9994 37.434 14.2423 37.5327 14.5338C37.6314 14.8252 37.6075 15.1421 37.4661 15.4169L35.9113 18.4688C35.4156 19.4418 35.4156 20.558 35.9113 21.5311L37.4661 24.5829C37.6075 24.8577 37.6314 25.1747 37.5328 25.4662C37.4341 25.7577 37.2206 26.0006 36.9378 26.1432Z" fill="#3368C6"/>
<path d="M28.7836 11.5703C28.3143 11.1198 27.553 11.1198 27.0835 11.5703L11.2159 26.7959C10.7464 27.2464 10.7464 27.9767 11.2159 28.4272C11.3274 28.5345 11.4599 28.6195 11.6057 28.6775C11.7516 28.7355 11.908 28.7653 12.0659 28.7651C12.3735 28.7651 12.6812 28.6525 12.9159 28.4272L28.7836 13.2017C29.2532 12.7511 29.2532 12.0208 28.7836 11.5703ZM15.1911 9.61719C12.7606 9.61719 10.7832 11.5146 10.7832 13.8467C10.7832 16.1789 12.7606 18.0763 15.1911 18.0763C17.6217 18.0763 19.5991 16.1789 19.5991 13.8467C19.5991 11.5146 17.6217 9.61719 15.1911 9.61719ZM15.1911 15.7692C14.0864 15.7692 13.1876 14.9068 13.1876 13.8467C13.1876 12.7866 14.0864 11.9242 15.1911 11.9242C16.2959 11.9242 17.1948 12.7866 17.1948 13.8467C17.1947 14.9068 16.2959 15.7692 15.1911 15.7692ZM24.8084 21.9213C22.3778 21.9213 20.4004 23.8187 20.4004 26.1508C20.4004 28.483 22.3778 30.3804 24.8084 30.3804C27.2389 30.3804 29.2163 28.483 29.2163 26.1508C29.2163 23.8187 27.2389 21.9213 24.8084 21.9213ZM24.8084 28.0733C23.7036 28.0733 22.8047 27.2109 22.8047 26.1508C22.8047 25.0908 23.7035 24.2283 24.8084 24.2283C25.9131 24.2283 26.8119 25.0908 26.8119 26.1508C26.8119 27.2109 25.9131 28.0733 24.8084 28.0733Z" fill="#3368C6"/>
</g>
<defs>
<clipPath id="clip0_446_24562">
<rect width="40" height="40" fill="white"/>
</clipPath>
</defs>
</svg>
