<svg width="40" height="40" viewBox="0 0 40 40" fill="none" xmlns="http://www.w3.org/2000/svg">
<path d="M34.2 5.74833C30.4 2.075 25.4 0 20.075 0C4.79167 0 -4.805 16.5583 2.82667 29.73L0 40L10.5583 37.2467C15.1583 39.7317 18.9267 39.5117 20.085 39.6583C37.8067 39.6583 46.6283 18.2183 34.175 5.81333L34.2 5.74833Z" fill="#ECEFF1"/>
<path d="M20.1124 36.2491L20.1024 36.2474H20.0758C14.7724 36.2474 11.3841 33.7358 11.0508 33.5908L4.80078 35.2158L6.47578 29.1408L6.07745 28.5158C4.42542 25.8903 3.5495 22.8511 3.55078 19.7491C3.55078 5.09409 21.4591 -2.23424 31.8224 8.12409C42.1608 18.3741 34.9024 36.2491 20.1124 36.2491Z" fill="#3368C6"/>
<path d="M29.1786 23.8437L29.1636 23.9687C28.6619 23.7187 26.2186 22.5237 25.7636 22.3587C24.7419 21.9803 25.0302 22.2987 23.0686 24.5453C22.7769 24.8703 22.4869 24.8953 21.9919 24.6703C21.4919 24.4203 19.8869 23.8953 17.9869 22.1953C16.5069 20.8703 15.5136 19.2453 15.2202 18.7453C14.7319 17.902 15.7536 17.782 16.6836 16.022C16.8502 15.672 16.7652 15.397 16.6419 15.1487C16.5169 14.8987 15.5219 12.4487 15.1052 11.472C14.7052 10.4987 14.2936 10.622 13.9852 10.622C13.0252 10.5387 12.3236 10.552 11.7052 11.1953C9.01523 14.152 9.69356 17.202 11.9952 20.4453C16.5186 26.3653 18.9286 27.4553 23.3352 28.9687C24.5252 29.347 25.6102 29.2937 26.4686 29.1703C27.4252 29.0187 29.4136 27.9687 29.8286 26.7937C30.2536 25.6187 30.2536 24.6437 30.1286 24.4187C30.0052 24.1937 29.6786 24.0687 29.1786 23.8437Z" fill="#FAFAFA"/>
</svg>
