<svg width="40" height="40" viewBox="0 0 40 40" fill="none" xmlns="http://www.w3.org/2000/svg">
<path d="M1.81805 20.0028C1.81756 16.588 2.77876 13.2421 4.59159 10.3482C6.40441 7.45425 8.99558 5.12937 12.0684 3.63973C15.1412 2.15009 18.5713 1.55593 21.9661 1.92526C25.3609 2.2946 28.5831 3.61252 31.2636 5.72809H28.4975C28.2579 5.73041 28.0289 5.82723 27.8603 5.99748C27.6917 6.16774 27.5971 6.39768 27.5971 6.6373C27.5971 6.87693 27.6917 7.10686 27.8603 7.27712C28.0289 7.44738 28.2579 7.54419 28.4975 7.54651H33.6408C33.882 7.54651 34.1132 7.45071 34.2837 7.2802C34.4543 7.10968 34.5501 6.87841 34.5501 6.63726V1.49382C34.5512 1.37368 34.5286 1.2545 34.4834 1.14317C34.4382 1.03184 34.3714 0.930562 34.2869 0.845196C34.2023 0.75983 34.1017 0.692066 33.9908 0.645819C33.8799 0.599573 33.761 0.575762 33.6408 0.575762C33.5207 0.575762 33.4017 0.599573 33.2909 0.645819C33.18 0.692066 33.0793 0.75983 32.9948 0.845196C32.9103 0.930562 32.8435 1.03184 32.7983 1.14317C32.7531 1.2545 32.7305 1.37368 32.7316 1.49382V4.57267C28.767 1.30214 23.6956 -0.316858 18.5693 0.0514693C13.443 0.419797 8.65518 2.74718 5.19884 6.55092C1.74251 10.3546 -0.117101 15.3428 0.00571837 20.4809C0.128538 25.6189 2.22436 30.5126 5.85849 34.1468C5.94255 34.2328 6.04285 34.3013 6.15357 34.3483C6.26428 34.3953 6.38322 34.4198 6.5035 34.4205C6.62377 34.4212 6.74299 34.398 6.85424 34.3523C6.96549 34.3066 7.06657 34.2393 7.15161 34.1543C7.23666 34.0692 7.30399 33.9681 7.3497 33.8569C7.3954 33.7456 7.41858 33.6264 7.41789 33.5061C7.41719 33.3859 7.39264 33.2669 7.34566 33.1562C7.29867 33.0455 7.23018 32.9452 7.14416 32.8611C5.4503 31.1765 4.10738 29.1726 3.19316 26.9655C2.27893 24.7583 1.81154 22.3918 1.81805 20.0028ZM12.0557 36.3648C11.5371 36.1124 11.0308 35.8357 10.5384 35.5355C10.3326 35.4099 10.0853 35.3712 9.85092 35.4278C9.61655 35.4845 9.4143 35.632 9.28866 35.8378C9.16302 36.0436 9.12429 36.2909 9.18098 36.5253C9.23768 36.7597 9.38515 36.9619 9.59096 37.0876C10.1329 37.4181 10.6903 37.7227 11.2611 38.0003C11.3685 38.0525 11.4852 38.083 11.6043 38.0901C11.7235 38.0972 11.8429 38.0808 11.9558 38.0418C12.0686 38.0027 12.1726 37.9419 12.2619 37.8626C12.3512 37.7834 12.4241 37.6873 12.4762 37.5799C12.5284 37.4725 12.5589 37.3559 12.566 37.2367C12.5732 37.1175 12.5567 36.9981 12.5177 36.8853C12.4787 36.7725 12.4178 36.6684 12.3385 36.5791C12.2593 36.4898 12.1632 36.417 12.0558 36.3648H12.0557ZM36.3725 12.0729C36.4245 12.1804 36.4972 12.2765 36.5864 12.3559C36.6757 12.4352 36.7796 12.4963 36.8924 12.5354C37.0052 12.5746 37.1246 12.5912 37.2438 12.5842C37.363 12.5773 37.4797 12.5469 37.5871 12.4948C37.6946 12.4428 37.7908 12.3701 37.8701 12.2809C37.9495 12.1917 38.0105 12.0877 38.0497 11.9749C38.0889 11.8621 38.1054 11.7427 38.0985 11.6235C38.0915 11.5043 38.0611 11.3876 38.0091 11.2802C37.7324 10.7092 37.4287 10.1516 37.099 9.60948C37.0369 9.50745 36.9554 9.41865 36.859 9.34814C36.7626 9.27763 36.6533 9.2268 36.5372 9.19854C36.3029 9.14147 36.0555 9.17983 35.8494 9.30517C35.6434 9.43052 35.4956 9.63258 35.4385 9.86691C35.3814 10.1012 35.4198 10.3486 35.5451 10.5547C35.8447 11.0474 36.1208 11.5541 36.3725 12.0729ZM22.1596 38.0599C21.5856 38.1281 21.0049 38.1687 20.4331 38.1825C20.1963 38.1915 19.9725 38.2927 19.8092 38.4643C19.6458 38.636 19.556 38.8646 19.5588 39.1015C19.5615 39.3385 19.6567 39.5649 19.8239 39.7328C19.9912 39.9006 20.2173 39.9965 20.4542 40C20.4613 40 20.4689 40 20.476 39.9996C21.1046 39.985 21.7425 39.9399 22.373 39.8655C22.6123 39.837 22.8304 39.7147 22.9796 39.5254C23.1287 39.3362 23.1966 39.0954 23.1684 38.8561C23.1402 38.6168 23.0181 38.3985 22.829 38.2491C22.6399 38.0998 22.3992 38.0316 22.1599 38.0596L22.1596 38.0599ZM16.985 37.9365C16.4161 37.8414 15.8521 37.7191 15.2949 37.5699C15.0618 37.5077 14.8136 37.5405 14.6048 37.6612C14.396 37.782 14.2437 37.9807 14.1814 38.2137C14.1191 38.4467 14.152 38.695 14.2727 38.9038C14.3934 39.1126 14.5922 39.2649 14.8252 39.3272C15.4386 39.4909 16.0595 39.6252 16.6858 39.7298C16.8036 39.7495 16.9241 39.7457 17.0404 39.7188C17.1567 39.6919 17.2666 39.6423 17.3638 39.5729C17.4609 39.5036 17.5435 39.4157 17.6067 39.3144C17.6699 39.2131 17.7126 39.1004 17.7322 38.9826C17.7518 38.8648 17.7481 38.7444 17.7212 38.628C17.6943 38.5117 17.6447 38.4018 17.5753 38.3047C17.5059 38.2075 17.4181 38.125 17.3168 38.0617C17.2155 37.9985 17.1028 37.9559 16.985 37.9362V37.9365ZM39.1126 19.5644C38.8715 19.5586 38.638 19.6487 38.4634 19.8149C38.2887 19.9811 38.1872 20.2099 38.1812 20.4509C38.1665 21.0281 38.1249 21.6042 38.0564 22.1775C38.0279 22.4169 38.0956 22.6579 38.2447 22.8475C38.3938 23.037 38.6121 23.1596 38.8515 23.1883C38.8878 23.1924 38.9242 23.1944 38.9607 23.1945C39.1829 23.1942 39.3973 23.1125 39.5635 22.9649C39.7296 22.8173 39.8359 22.6139 39.8624 22.3933C39.9373 21.7634 39.9828 21.1304 39.9987 20.4963C40.0018 20.3769 39.9813 20.2581 39.9384 20.1466C39.8955 20.0352 39.831 19.9333 39.7487 19.8468C39.6664 19.7602 39.5679 19.6907 39.4588 19.6423C39.3496 19.5939 39.232 19.5674 39.1126 19.5644ZM36.3218 29.9644C36.1223 29.8291 35.8773 29.7785 35.6405 29.8237C35.4037 29.8689 35.1945 30.0062 35.0588 30.2054C34.7343 30.6828 34.3875 31.1446 34.0194 31.5892C33.9415 31.6809 33.8825 31.7872 33.8459 31.9019C33.8094 32.0165 33.796 32.1373 33.8065 32.2573C33.817 32.3772 33.8512 32.4938 33.9071 32.6004C33.9631 32.707 34.0396 32.8014 34.1323 32.8781C34.225 32.9549 34.3321 33.0125 34.4472 33.0475C34.5624 33.0826 34.6833 33.0944 34.8031 33.0824C34.9229 33.0703 35.039 33.0346 35.1449 32.9772C35.2507 32.9199 35.3441 32.8422 35.4197 32.7485C35.8246 32.2597 36.2061 31.752 36.5628 31.227C36.6299 31.1283 36.6769 31.0173 36.7011 30.9004C36.7253 30.7835 36.7262 30.663 36.7038 30.5458C36.6815 30.4285 36.6362 30.3168 36.5707 30.2171C36.5051 30.1173 36.4206 30.0314 36.3218 29.9644ZM37.5747 15.312C37.7229 15.8694 37.8445 16.4336 37.9392 17.0026C37.9744 17.2148 38.0838 17.4077 38.2478 17.5469C38.4118 17.6862 38.6199 17.7628 38.835 17.7631C38.8852 17.763 38.9352 17.7588 38.9846 17.7506C39.1025 17.7311 39.2153 17.6885 39.3166 17.6254C39.418 17.5623 39.5059 17.4798 39.5754 17.3826C39.6448 17.2855 39.6945 17.1756 39.7215 17.0593C39.7485 16.943 39.7523 16.8225 39.7327 16.7047C39.6288 16.0784 39.4951 15.4575 39.3321 14.844C39.27 14.611 39.1179 14.4122 38.9093 14.2913C38.7006 14.1704 38.4525 14.1374 38.2195 14.1994C37.9865 14.2615 37.7876 14.4136 37.6668 14.6222C37.5459 14.8309 37.5128 15.079 37.5749 15.312H37.5747ZM31.5733 34.0323C31.1288 34.4001 30.667 34.7464 30.1895 35.0703C30.0907 35.1373 30.0061 35.2231 29.9404 35.3228C29.8747 35.4225 29.8294 35.5342 29.8069 35.6514C29.7843 35.7686 29.7852 35.8892 29.8092 36.0061C29.8333 36.123 29.8802 36.2341 29.9472 36.3329C30.0141 36.4317 30.0999 36.5164 30.1997 36.582C30.2994 36.6477 30.411 36.6931 30.5283 36.7156C30.6455 36.7381 30.766 36.7373 30.883 36.7132C30.9999 36.6891 31.111 36.6423 31.2098 36.5753C31.7349 36.2192 32.2429 35.8385 32.7321 35.4343C32.918 35.2807 33.0352 35.0595 33.0581 34.8194C33.0809 34.5792 33.0074 34.3399 32.8537 34.154C32.7 33.968 32.4788 33.8508 32.2387 33.828C31.9986 33.8052 31.7592 33.8787 31.5733 34.0323ZM38.4639 24.965C38.2342 24.892 37.9849 24.9132 37.7708 25.0238C37.5567 25.1344 37.3951 25.3254 37.3217 25.555C37.1462 26.1043 36.9446 26.6449 36.7174 27.175C36.6678 27.2851 36.6407 27.404 36.6376 27.5247C36.6344 27.6454 36.6554 27.7655 36.6992 27.8781C36.743 27.9906 36.8088 28.0933 36.8927 28.1801C36.9766 28.267 37.077 28.3362 37.188 28.3838C37.299 28.4314 37.4183 28.4564 37.5391 28.4574C37.6599 28.4583 37.7796 28.4352 37.8913 28.3894C38.0031 28.3435 38.1045 28.2759 38.1898 28.1904C38.2751 28.1049 38.3425 28.0033 38.3881 27.8915C38.6387 27.3079 38.8608 26.7124 39.0536 26.1073C39.0899 25.9935 39.1035 25.8738 39.0936 25.7548C39.0836 25.6358 39.0503 25.52 38.9955 25.4139C38.9407 25.3078 38.8656 25.2136 38.7744 25.1365C38.6832 25.0595 38.5777 25.0012 38.4639 24.965ZM27.1572 36.7253C26.627 36.9521 26.0863 37.1534 25.5368 37.3286C25.4231 37.3649 25.3176 37.4232 25.2264 37.5002C25.1352 37.5773 25.06 37.6715 25.0052 37.7776C24.9504 37.8837 24.9171 37.9995 24.9071 38.1184C24.897 38.2374 24.9105 38.3572 24.9468 38.4709C24.9831 38.5847 25.0414 38.6902 25.1184 38.7814C25.1954 38.8726 25.2897 38.9477 25.3957 39.0025C25.5018 39.0573 25.6176 39.0907 25.7366 39.1007C25.8556 39.1107 25.9753 39.0972 26.0891 39.061C26.6939 38.8683 27.2892 38.6468 27.8729 38.3973C28.0946 38.3023 28.2695 38.1232 28.3592 37.8993C28.4488 37.6754 28.4458 37.425 28.3509 37.2033C28.2559 36.9816 28.0768 36.8066 27.8529 36.717C27.629 36.6274 27.3786 36.6304 27.1569 36.7253H27.1572Z" fill="#3368C6"/>
<path d="M12.3134 18.1428C12.3134 16.6527 11.3335 15.4586 9.81704 15.1006C8.98394 14.9033 8.10855 14.9942 7.33376 15.3585C6.55897 15.7228 5.93054 16.3389 5.55106 17.1064C5.4448 17.3219 5.42816 17.5707 5.50478 17.7985C5.58139 18.0262 5.74504 18.2144 5.95996 18.3218C6.17488 18.4293 6.4236 18.4473 6.65177 18.372C6.87994 18.2966 7.06902 18.1341 7.17769 17.9197C7.37181 17.5169 7.69834 17.1929 8.10271 17.0019C8.50707 16.8109 8.96474 16.7645 9.3992 16.8704C9.65628 16.931 10.4949 17.2023 10.4949 18.1428C10.4949 19.0911 9.39963 19.8225 8.24003 20.597C6.93433 21.4685 5.45508 22.4563 5.45508 24.0919C5.45508 24.333 5.55087 24.5643 5.72139 24.7348C5.89191 24.9053 6.12318 25.0011 6.36433 25.0011H11.4041C11.5243 25.0023 11.6434 24.9796 11.7548 24.9344C11.8661 24.8893 11.9674 24.8225 12.0527 24.7379C12.1381 24.6534 12.2059 24.5528 12.2521 24.4419C12.2984 24.331 12.3222 24.212 12.3222 24.0919C12.3222 23.9718 12.2984 23.8528 12.2521 23.7419C12.2059 23.631 12.1381 23.5304 12.0527 23.4459C11.9674 23.3613 11.8661 23.2945 11.7548 23.2494C11.6434 23.2042 11.5243 23.1815 11.4041 23.1827H7.80189C8.18283 22.8218 8.72129 22.4622 9.2496 22.1092C10.686 21.1502 12.3134 20.0634 12.3134 18.1428ZM20.9119 21.1369C20.9119 20.8957 20.8161 20.6645 20.6456 20.494C20.4751 20.3235 20.2438 20.2277 20.0027 20.2277H19.2639V15.3974C19.2639 15.2091 19.2054 15.0255 19.0965 14.8718C18.9876 14.7182 18.8337 14.6021 18.6561 14.5397C18.4784 14.4772 18.2858 14.4715 18.1047 14.5232C17.9236 14.575 17.7631 14.6816 17.6453 14.8285L13.0423 20.5682C12.9353 20.7019 12.8681 20.8632 12.8487 21.0334C12.8292 21.2036 12.8582 21.3758 12.9323 21.5302C13.0065 21.6847 13.1227 21.815 13.2677 21.9063C13.4127 21.9976 13.5805 22.046 13.7518 22.0461H17.4455V24.6033C17.4443 24.7234 17.467 24.8426 17.5121 24.9539C17.5573 25.0653 17.6241 25.1665 17.7086 25.2519C17.7932 25.3373 17.8938 25.405 18.0047 25.4513C18.1156 25.4975 18.2345 25.5213 18.3547 25.5213C18.4748 25.5213 18.5938 25.4975 18.7047 25.4513C18.8156 25.405 18.9162 25.3373 19.0007 25.2519C19.0853 25.1665 19.1521 25.0653 19.1972 24.9539C19.2424 24.8426 19.2651 24.7234 19.2639 24.6033V22.0461H20.0027C20.2438 22.0461 20.4751 21.9503 20.6456 21.7798C20.8161 21.6093 20.9119 21.378 20.9119 21.1369ZM17.4455 20.2277H15.6469L17.4455 17.9844V20.2277ZM25.5654 13.9945C25.4483 13.9709 25.3277 13.9706 25.2105 13.9936C25.0932 14.0167 24.9817 14.0627 24.8823 14.1289C24.7829 14.1952 24.6976 14.2804 24.6312 14.3798C24.5648 14.4791 24.5187 14.5906 24.4955 14.7077L22.4497 24.9365C22.4024 25.1729 22.4509 25.4185 22.5846 25.6191C22.7184 25.8198 22.9263 25.9591 23.1628 26.0064C23.2217 26.0182 23.2817 26.0241 23.3418 26.0242C23.5518 26.0239 23.7552 25.951 23.9175 25.8178C24.0799 25.6846 24.1911 25.4993 24.2323 25.2934L26.2781 15.0646C26.3016 14.9476 26.3018 14.827 26.2787 14.7099C26.2556 14.5927 26.2097 14.4813 26.1435 14.3819C26.0773 14.2825 25.9922 14.1972 25.893 14.1307C25.7938 14.0642 25.6825 14.018 25.5654 13.9945ZM30.231 25.0015C30.4105 25.0014 30.5861 24.9482 30.7354 24.8486C30.8848 24.749 31.0014 24.6074 31.0705 24.4417L34.4801 16.2587C34.5378 16.1205 34.5604 15.9703 34.546 15.8212C34.5316 15.6722 34.4807 15.5291 34.3976 15.4045C34.3146 15.2799 34.2021 15.1778 34.0701 15.1071C33.9381 15.0365 33.7907 14.9996 33.641 14.9996H29.0381C28.7984 15.0019 28.5694 15.0987 28.4008 15.269C28.2322 15.4393 28.1376 15.6692 28.1376 15.9088C28.1376 16.1484 28.2322 16.3784 28.4008 16.5486C28.5694 16.7189 28.7984 16.8157 29.0381 16.818H32.2772L29.3923 23.7424C29.3349 23.8805 29.3125 24.0307 29.327 24.1796C29.3415 24.3285 29.3924 24.4716 29.4753 24.5961C29.5582 24.7206 29.6706 24.8228 29.8024 24.8935C29.9342 24.9643 30.0814 25.0015 30.231 25.0019V25.0015Z" fill="#3368C6"/>
</svg>
