<svg width="40" height="40" viewBox="0 0 40 40" fill="none" xmlns="http://www.w3.org/2000/svg">
<path d="M8.70863 32H31.2914C31.4793 32 31.6596 31.9253 31.7924 31.7924C31.9253 31.6596 32 31.4793 32 31.2914V30.3086C32 30.1207 31.9253 29.9404 31.7924 29.8076C31.6596 29.6747 31.4793 29.6 31.2914 29.6H8.70863C8.52069 29.6 8.34045 29.6747 8.20755 29.8076C8.07466 29.9404 8 30.1207 8 30.3086V31.2914C8 31.4793 8.07466 31.6596 8.20755 31.7924C8.34045 31.9253 8.52069 32 8.70863 32ZM9.91192 27.2H10.8947C11.0826 27.2 11.2628 27.1253 11.3957 26.9924C11.5286 26.8596 11.6033 26.6793 11.6033 26.4914V23.1086C11.6033 23.0156 11.5849 22.9234 11.5493 22.8374C11.5137 22.7514 11.4615 22.6733 11.3956 22.6075C11.3298 22.5417 11.2517 22.4895 11.1657 22.4539C11.0797 22.4183 10.9875 22.4 10.8944 22.4H9.91192C9.72397 22.4 9.54373 22.4747 9.41084 22.6076C9.27794 22.7404 9.20328 22.9207 9.20328 23.1086V26.4914C9.20328 26.6793 9.27794 26.8596 9.41084 26.9924C9.54373 27.1253 9.72397 27.2 9.91192 27.2ZM14.0033 18.3086V26.4914C14.0033 26.6793 14.0779 26.8596 14.2108 26.9924C14.3437 27.1253 14.524 27.2 14.7119 27.2H15.6947C15.8826 27.2 16.0628 27.1253 16.1957 26.9924C16.3286 26.8596 16.4033 26.6793 16.4033 26.4914V18.3086C16.4033 18.2156 16.3849 18.1234 16.3493 18.0374C16.3137 17.9514 16.2615 17.8733 16.1956 17.8075C16.1298 17.7417 16.0517 17.6895 15.9657 17.6539C15.8797 17.6183 15.7875 17.6 15.6944 17.6H14.7119C14.524 17.6 14.3437 17.6747 14.2108 17.8076C14.0779 17.9404 14.0033 18.1207 14.0033 18.3086ZM18.8033 13.5086V26.4914C18.8033 26.6793 18.8779 26.8596 19.0108 26.9924C19.1437 27.1253 19.324 27.2 19.5119 27.2H20.4947C20.6826 27.2 20.8628 27.1253 20.9957 26.9924C21.1286 26.8596 21.2033 26.6793 21.2033 26.4914V13.5086C21.2033 13.4156 21.1849 13.3234 21.1493 13.2374C21.1137 13.1514 21.0615 13.0733 20.9956 13.0075C20.9298 12.9417 20.8517 12.8895 20.7657 12.8539C20.6797 12.8183 20.5875 12.8 20.4944 12.8H19.5119C19.324 12.8 19.1437 12.8747 19.0108 13.0076C18.8779 13.1404 18.8033 13.3207 18.8033 13.5086ZM23.6033 18.3086V26.4914C23.6033 26.6793 23.6779 26.8596 23.8108 26.9924C23.9437 27.1253 24.124 27.2 24.3119 27.2H25.2947C25.3877 27.2 25.4799 27.1817 25.5658 27.1461C25.6518 27.1104 25.7299 27.0582 25.7957 26.9924C25.8615 26.9266 25.9137 26.8485 25.9493 26.7625C25.985 26.6766 26.0033 26.5844 26.0033 26.4914V18.3086C26.0033 18.2156 25.9849 18.1234 25.9493 18.0374C25.9137 17.9514 25.8615 17.8733 25.7956 17.8075C25.7298 17.7417 25.6517 17.6895 25.5657 17.6539C25.4797 17.6183 25.3875 17.6 25.2944 17.6H24.3119C24.124 17.6 23.9437 17.6747 23.8108 17.8076C23.6779 17.9404 23.6033 18.1207 23.6033 18.3086ZM28.4033 8.70863V26.4914C28.4033 26.6793 28.4779 26.8596 28.6108 26.9924C28.7437 27.1253 28.924 27.2 29.1119 27.2H30.0947C30.2826 27.2 30.4628 27.1253 30.5957 26.9924C30.7286 26.8596 30.8033 26.6793 30.8033 26.4914V8.70863C30.8033 8.61555 30.7849 8.52338 30.7493 8.43739C30.7137 8.3514 30.6615 8.27327 30.5956 8.20746C30.5298 8.14166 30.4517 8.08947 30.3657 8.05387C30.2797 8.01827 30.1875 7.99997 30.0944 8H29.1119C29.0189 8 28.9267 8.01833 28.8407 8.05394C28.7548 8.08955 28.6766 8.14175 28.6108 8.20755C28.545 8.27336 28.4928 8.35147 28.4572 8.43745C28.4216 8.52343 28.4033 8.61557 28.4033 8.70863Z" fill="#3368C6"/>
</svg>
