<svg width="40" height="40" viewBox="0 0 40 40" fill="none" xmlns="http://www.w3.org/2000/svg">
<g clip-path="url(#clip0_551_3919)">
<path d="M30.813 12.0231C28.1152 9.32599 23.7263 9.32599 21.0292 12.0231L20.4028 12.6492L19.7767 12.0231C17.0796 9.32563 12.6904 9.32563 9.99323 12.0231C7.35088 14.6655 7.33372 18.8539 9.95344 21.766C12.3428 24.4212 19.3897 30.1575 19.6887 30.4002C19.8835 30.5591 20.1273 30.6458 20.3787 30.6456L20.4024 30.6452C20.6536 30.6569 20.9066 30.5707 21.1161 30.4002C21.4151 30.1575 28.4627 24.4212 30.8528 21.7657C33.4722 18.8539 33.455 14.6655 30.813 12.0231ZM29.2246 20.3006C27.3617 22.3702 22.2409 26.6386 20.4024 28.1532C18.5639 26.639 13.4442 22.3709 11.5816 20.301C9.75411 18.2698 9.73696 15.377 11.5418 13.5721C12.4636 12.6507 13.6742 12.1896 14.8848 12.1896C16.0953 12.1896 17.3059 12.6503 18.2277 13.5721L19.6047 14.9491C19.7642 15.1076 19.9699 15.2113 20.1921 15.2452C20.3714 15.2841 20.5576 15.2773 20.7336 15.2257C20.9096 15.174 21.0699 15.0791 21.1997 14.9495L22.5775 13.5721C24.4214 11.7289 27.4208 11.7292 29.2637 13.5721C31.0686 15.377 31.0514 18.2698 29.2246 20.3006Z" fill="#3368C6"/>
</g>
<defs>
<clipPath id="clip0_551_3919">
<rect width="40" height="40" fill="white"/>
</clipPath>
</defs>
</svg>
